<svg width="32" height="32" viewBox="0 0 32 32" fill="none" xmlns="http://www.w3.org/2000/svg">
<g id="icon/social/mood_24px">
<path id="icon/social/mood_24px_2" fill-rule="evenodd" clip-rule="evenodd" d="M15.9867 2.66667C8.62667 2.66667 2.66667 8.64001 2.66667 16C2.66667 23.36 8.62667 29.3333 15.9867 29.3333C23.36 29.3333 29.3333 23.36 29.3333 16C29.3333 8.64001 23.36 2.66667 15.9867 2.66667ZM16 26.6667C10.1067 26.6667 5.33334 21.8933 5.33334 16C5.33334 10.1067 10.1067 5.33334 16 5.33334C21.8933 5.33334 26.6667 10.1067 26.6667 16C26.6667 21.8933 21.8933 26.6667 16 26.6667ZM22.6667 12.6667C22.6667 13.7733 21.7733 14.6667 20.6667 14.6667C19.56 14.6667 18.6667 13.7733 18.6667 12.6667C18.6667 11.56 19.56 10.6667 20.6667 10.6667C21.7733 10.6667 22.6667 11.56 22.6667 12.6667ZM11.3333 14.6667C12.44 14.6667 13.3333 13.7733 13.3333 12.6667C13.3333 11.56 12.44 10.6667 11.3333 10.6667C10.2267 10.6667 9.33334 11.56 9.33334 12.6667C9.33334 13.7733 10.2267 14.6667 11.3333 14.6667ZM22.3333 19.6667C21.0667 21.8533 18.7067 23.3333 16 23.3333C13.2933 23.3333 10.9333 21.8533 9.66667 19.6667C9.41334 19.2267 9.74667 18.6667 10.2533 18.6667H21.7467C22.2667 18.6667 22.5867 19.2267 22.3333 19.6667Z" fill="#023047"/>
</g>
</svg>
