<svg width="32" height="32" viewBox="0 0 32 32" fill="none" xmlns="http://www.w3.org/2000/svg">
<g id="icon/action/perm_media_24px">
<path id="icon/action/perm_media_24px_2" fill-rule="evenodd" clip-rule="evenodd" d="M29.3333 5.33334H18.6667L16.7867 3.45334C16.28 2.94667 15.6 2.66667 14.8933 2.66667H8C6.53333 2.66667 5.34667 3.86667 5.34667 5.33334L5.33333 21.3333C5.33333 22.8 6.53333 24 8 24H29.3333C30.8 24 32 22.8 32 21.3333V8.00001C32 6.53334 30.8 5.33334 29.3333 5.33334ZM1.33333 8C0.6 8 0 8.6 0 9.33334V14.6667H0.0133333L0 26.6667C0 28.1333 1.2 29.3333 2.66667 29.3333H25.3333C26.0667 29.3333 26.6667 28.7333 26.6667 28C26.6667 27.2667 26.0667 26.6667 25.3333 26.6667H4C3.26667 26.6667 2.66667 26.0667 2.66667 25.3333V9.33334C2.66667 8.6 2.06667 8 1.33333 8ZM14.8133 12.6933L10.1333 18.9333C9.8 19.3733 10.12 20 10.6667 19.9867H26.6533C27.2 19.9867 27.52 19.3467 27.1733 18.9067L23.8533 14.64C23.5867 14.3067 23.08 14.2933 22.8133 14.6267L20.0133 18L15.88 12.68C15.6 12.3333 15.08 12.3467 14.8133 12.6933Z" fill="#023047"/>
</g>
</svg>
