<svg width="32" height="32" viewBox="0 0 32 32" fill="none" xmlns="http://www.w3.org/2000/svg">
<g id="icon/action/thumb_up_24px">
<path id="icon/action/thumb_up_24px_2" fill-rule="evenodd" clip-rule="evenodd" d="M9.87868 11.0558L17.2653 3.66917C18.0387 2.8825 19.292 2.8825 20.0787 3.65584C20.5587 4.13584 20.7587 4.81584 20.6253 5.4825L19.3587 11.5892H26.892C29.7587 11.5892 31.692 14.5225 30.572 17.1625L26.2253 27.3092C25.7987 28.2825 24.8387 28.9225 23.772 28.9225H11.772C10.3053 28.9225 9.10535 27.7225 9.10535 26.2558V12.9358C9.10535 12.2292 9.38535 11.5492 9.87868 11.0558ZM6.43868 26.2558C6.43868 27.7225 5.23868 28.9225 3.77201 28.9225C2.30535 28.9225 1.10535 27.7225 1.10535 26.2558V15.5892C1.10535 14.1225 2.30535 12.9225 3.77201 12.9225C5.23868 12.9225 6.43868 14.1225 6.43868 15.5892V26.2558Z" fill="#023047"/>
</g>
</svg>
